<svg width="16" height="20" viewBox="0 0 16 20" fill="none" xmlns="http://www.w3.org/2000/svg">
<path opacity="0.4" d="M7.99118 16.6193L1.49945 19.8618C1.00921 20.128 0.397683 19.9503 0.123484 19.4621C0.0434041 19.3086 0.00105752 19.138 0 18.9646V11.7065C0 12.4261 0.405733 12.8703 1.47299 13.3678L7.99118 16.6193Z" fill="#EA6A12"/>
<path fill-rule="evenodd" clip-rule="evenodd" d="M4.89526 -0.000488281H11.0695C13.7773 -0.000488281 15.9735 1.06556 16 3.79288V18.9664C15.9989 19.1369 15.9565 19.3046 15.8765 19.455C15.7479 19.7002 15.5259 19.8822 15.2615 19.9593C14.997 20.0363 14.7128 20.0018 14.4741 19.8636L7.99118 16.621L1.47299 13.3696C0.405733 12.8721 0 12.4279 0 11.7083V3.79288C0 1.06556 2.19625 -0.000488281 4.89526 -0.000488281ZM4.22446 7.61988H11.7482C12.1817 7.61988 12.5332 7.2659 12.5332 6.82923C12.5332 6.39256 12.1817 6.03857 11.7482 6.03857H4.22446C3.79091 6.03857 3.43945 6.39256 3.43945 6.82923C3.43945 7.2659 3.79091 7.61988 4.22446 7.61988Z" fill="#EA6A12"/>
</svg>
